<svg width="75" height="21" viewBox="0 0 75 21" fill="none" xmlns="http://www.w3.org/2000/svg">
<path d="M70.6441 10.8501C70.5797 10.5374 70.402 10.3186 70.0677 10.2347C69.9165 10.1977 69.761 10.1787 69.6048 10.1781C68.8364 10.1781 68.0679 10.1781 67.2995 10.1781C67.1852 10.1785 67.072 10.1999 66.9662 10.2411C66.6714 10.3559 66.5244 10.5921 66.5436 10.9194C66.5599 11.1793 66.7184 11.3434 67.0316 11.4264C67.2268 11.4708 67.4274 11.4904 67.628 11.4847H68.9286C68.9651 11.4847 68.9939 11.4792 68.9939 11.533C68.9939 11.9661 68.9939 12.4001 68.9939 12.8341C68.9952 12.847 68.9921 12.8599 68.985 12.871C68.9779 12.882 68.9672 12.8905 68.9545 12.8952C68.1506 13.3019 67.3063 13.5444 66.3832 13.4742C65.9844 13.4519 65.5961 13.3437 65.2479 13.1578C64.6831 12.846 64.3315 12.3728 64.125 11.7947C63.9795 11.3648 63.9056 10.916 63.906 10.4644C63.8835 9.92615 63.9716 9.38885 64.1654 8.88251C64.4362 8.21327 64.8992 7.71817 65.6177 7.4647C66.1138 7.29637 66.6482 7.2564 67.166 7.3489C67.6412 7.41809 68.0694 7.66007 68.3599 8.02362C68.5252 8.22512 68.675 8.43574 68.821 8.64818C68.9152 8.78126 69.0486 8.88503 69.2046 8.94649C69.3606 9.00795 69.5322 9.02439 69.6979 8.99375C69.8676 8.96504 70.0239 8.88799 70.1463 8.77283C70.2686 8.65768 70.3511 8.50988 70.3828 8.34912C70.4093 8.18453 70.3908 8.01624 70.329 7.86041C70.1442 7.36108 69.7915 6.93335 69.3253 6.64319C68.6769 6.21192 67.9431 6.01771 67.1622 5.97212C66.6484 5.93975 66.1324 5.96638 65.6254 6.05145C64.9779 6.15245 64.3612 6.38544 63.8177 6.73437C63.711 6.80366 63.6092 6.88116 63.4997 6.96505C63.5031 6.81505 63.4496 6.66889 63.3489 6.55323C63.2482 6.43758 63.1071 6.36013 62.9513 6.33501C62.8488 6.31374 62.7441 6.30334 62.6391 6.30401H58.36C58.2154 6.3026 58.0709 6.3145 57.9287 6.33957C57.7621 6.36079 57.6067 6.43118 57.4845 6.5408C57.3623 6.65042 57.2795 6.79372 57.2477 6.95046C57.2138 7.10022 57.198 7.25318 57.2007 7.40635L57.2064 13.9192C57.2061 14.0341 57.2135 14.1489 57.2285 14.2629C57.2881 14.6887 57.5657 14.9732 57.9969 15.0288C58.2071 15.065 58.424 15.0251 58.6048 14.9171C58.7856 14.8091 58.9172 14.6408 58.9738 14.4452C59.0194 14.2919 59.0414 14.1332 59.0391 13.9739C59.0391 13.053 59.0372 12.1324 59.0333 11.2121C59.0333 11.1601 59.0477 11.1464 59.1025 11.1464C60.079 11.1464 61.0555 11.1464 62.0321 11.1464C62.0801 11.1464 62.0945 11.1583 62.1003 11.2021C62.1453 11.5374 62.228 11.8673 62.3471 12.1859C62.7313 13.1888 63.4104 13.9492 64.441 14.406C65.0401 14.6647 65.687 14.8085 66.3448 14.8291C67.2216 14.878 68.0995 14.7493 68.9199 14.4516C69.3627 14.2977 69.7868 14.099 70.1849 13.859C70.341 13.7666 70.4684 13.6366 70.5541 13.4821C70.6398 13.3277 70.6808 13.1544 70.6729 12.98C70.6729 12.3843 70.6729 11.7889 70.6729 11.1939C70.6753 11.0787 70.6657 10.9635 70.6441 10.8501ZM62.4086 8.45762C62.2375 8.87862 62.1292 9.32023 62.0868 9.76967C62.0868 9.81981 62.0695 9.84078 62.009 9.83987C61.0485 9.83987 60.0857 9.83987 59.1207 9.83987C59.0602 9.83987 59.0381 9.83076 59.0381 9.76602C59.0381 9.08401 59.0381 8.40231 59.0381 7.72091C59.0381 7.6662 59.0468 7.64705 59.1121 7.64705C60.2609 7.64705 61.41 7.64705 62.5594 7.64705H62.8581C62.6756 7.89973 62.5247 8.17176 62.4086 8.45762ZM3.1188 7.53947C2.25841 7.52901 1.40604 7.69737 0.621454 8.03273L1.03736 9.4159C1.63778 9.2118 2.27169 9.11084 2.9094 9.11775C3.84687 9.11775 4.36555 9.51528 4.36555 10.3031V10.4015C3.83672 10.1996 3.27095 10.0991 2.70097 10.1061C1.14301 10.1061 0 10.6979 0 12.1768C0 13.3621 1.03928 14.0504 2.28603 14.0504C3.22349 14.0504 3.84687 13.755 4.26181 13.2618V13.9502H6.13194V10.3031C6.13194 9.4159 5.92446 8.72295 5.40483 8.22968C4.88519 7.83488 4.15808 7.53947 3.1188 7.53947ZM4.36747 11.782C4.36747 12.3737 3.74409 12.867 2.80663 12.9673C2.18325 12.9673 1.76831 12.6718 1.76831 12.1786C1.76831 11.5868 2.28795 11.2914 3.12072 11.2914C3.5455 11.2917 3.96734 11.3582 4.36939 11.4884L4.36747 11.782ZM12.2668 8.42845C11.7452 7.84126 11.1218 7.44191 10.0854 7.44191C8.52746 7.44191 7.07228 8.52692 7.07228 10.4006C7.07228 12.2743 8.52266 13.3621 10.0854 13.3621C11.1266 13.3621 11.75 12.9673 12.2696 12.3728V12.6737C12.2696 13.8572 11.6463 14.4489 10.3995 14.4489C9.46205 14.4489 8.83867 14.252 8.11156 13.8572L7.48338 15.2358C8.31423 15.6296 9.35351 15.926 10.3947 15.926C11.7452 15.926 12.6807 15.6296 13.3041 15.0379C13.8228 14.5446 14.135 13.7559 14.135 12.5761V7.63976H12.2648L12.2668 8.42845ZM10.7088 11.9789C9.77133 11.9789 9.04326 11.3872 9.04326 10.4991C9.04326 9.61102 9.77133 9.02019 10.7088 9.02019C11.6463 9.02019 12.3705 9.61193 12.3705 10.4991C12.3705 11.3862 11.6415 11.9789 10.7069 11.9789H10.7088ZM17.5659 6.94681H16.1098L17.6677 5.07311H19.436L20.995 6.94681H19.5407L18.5015 6.15813L17.5659 6.94681ZM18.6052 7.44008C16.6285 7.44008 15.278 8.92172 15.278 10.7954C15.278 12.7676 16.7332 14.1507 18.8127 14.1507C19.327 14.1527 19.8354 14.0476 20.3023 13.8428C20.7691 13.638 21.1829 13.3385 21.5146 12.9654L20.4753 12.0774C19.9557 12.5706 19.436 12.7676 18.8127 12.7676C17.9799 12.7676 17.3565 12.2743 17.1481 11.4856H21.8258V10.9924C21.8258 9.11775 20.7875 7.53855 18.6052 7.44008ZM17.0444 10.3031C17.2518 9.4159 17.6677 8.92263 18.5015 8.92263C19.3352 8.92263 19.852 9.51437 19.9557 10.3031H17.0444ZM28.998 9.90734V14.0523H27.1279V10.5009C27.1279 9.61102 26.712 9.21622 25.9848 9.21622C25.2577 9.21622 24.8399 9.61102 24.8399 10.5009V14.0514H22.8661V7.63885H24.7352V8.52601C25.1511 8.03274 25.7745 7.53947 26.712 7.53947C28.1662 7.53947 28.998 8.42753 28.998 9.90643V9.90734ZM31.9074 10.7963C31.9074 11.7829 32.5308 12.5716 33.572 12.5716C34.1953 12.5716 34.6103 12.2752 35.1299 11.8813L36.2729 12.9663C35.6496 13.6584 34.9225 14.1517 33.572 14.1517C31.4915 14.1517 30.0373 12.67 30.0373 10.7963C30.0373 8.92263 31.4915 7.44099 33.572 7.44099C34.8206 7.44099 35.6496 7.83579 36.2729 8.52783L35.1299 9.71314C34.715 9.31925 34.2991 9.02292 33.572 9.02292C32.6345 9.02019 31.9074 9.80887 31.9074 10.7954V10.7963ZM37.3113 7.63885H39.1891V13.9502H37.3161L37.3113 7.63885ZM37.2104 5.36944H39.1891V6.94772H37.2104V5.36944ZM43.3423 7.53947C42.1964 7.53947 41.4693 7.73641 40.7422 8.03273L41.2619 9.4159C41.8617 9.21217 42.4949 9.11121 43.132 9.11775C44.0695 9.11775 44.5891 9.51528 44.5891 10.3031V10.4015C44.0599 10.1997 43.4938 10.0993 42.9236 10.1061C41.3656 10.1061 40.2226 10.7963 40.2226 12.1768C40.2226 13.3621 41.2619 14.0504 42.5086 14.0504C43.3423 14.0504 44.0695 13.755 44.4844 13.2618V13.9502H46.3545V10.3031C46.3545 9.4159 46.147 8.72295 45.6274 8.22968C45.1078 7.83488 44.3807 7.53947 43.3423 7.53947ZM44.591 11.782C44.591 12.3737 43.9676 12.867 43.0302 12.9673C42.4068 12.9673 41.9909 12.6718 41.9909 12.1786C41.9909 11.5868 42.5105 11.2914 43.3443 11.2914C43.769 11.2919 44.1908 11.3584 44.5929 11.4884L44.591 11.782ZM63.9397 3.96022e-08C61.7519 -0.000180291 59.6131 0.615504 57.794 1.76919C55.9748 2.92287 54.5569 4.56274 53.7196 6.4814C52.8822 8.40006 52.6631 10.5113 53.0899 12.5482C53.5167 14.5851 54.5702 16.4561 56.1172 17.9246C57.6642 19.3931 59.6352 20.3932 61.781 20.7983C63.9267 21.2034 66.1509 20.9954 68.1721 20.2006C70.1933 19.4057 71.9209 18.0598 73.1362 16.3329C74.3516 14.6061 75.0002 12.5759 75 10.4991C74.9997 7.71463 73.8344 5.04429 71.7602 3.07538C69.6861 1.10647 66.873 0.000241819 63.9397 3.96022e-08ZM63.9397 19.2457C62.1172 19.2457 60.3358 18.7328 58.8205 17.7717C57.3052 16.8106 56.1242 15.4445 55.4268 13.8463C54.7294 12.248 54.5469 10.4894 54.9025 8.7927C55.258 7.09601 56.1356 5.53751 57.4242 4.31427C58.7128 3.09103 60.3547 2.25799 62.142 1.9205C63.9294 1.583 65.7821 1.75622 67.4658 2.41823C69.1495 3.08024 70.5885 4.20132 71.601 5.6397C72.6135 7.07808 73.1539 8.76916 73.1539 10.4991C73.1539 12.8188 72.1831 15.0436 70.4551 16.6839C68.7271 18.3242 66.3834 19.2457 63.9397 19.2457Z" fill="#1D1B1A"/>
</svg>
