<svg width="50" height="19" viewBox="0 0 50 19" fill="none" xmlns="http://www.w3.org/2000/svg">
<path d="M19.5565 0H3.77082C2.5468 0 1.76301 1.30126 2.33577 2.38304L3.91475 5.37302H1.05223C0.471036 5.37302 0 5.84448 0 6.4261C0 6.59704 0.0417855 6.76503 0.121136 6.91613L5.19997 16.5289C5.47221 17.0426 6.10912 17.2384 6.62279 16.9666C6.80935 16.8678 6.96172 16.7155 7.06048 16.5289L8.43983 13.9323L10.1703 17.2084C10.7794 18.3607 12.4293 18.3628 13.0404 17.2118L20.9527 2.32268C21.5119 1.2696 20.7488 0 19.5565 0ZM12.4656 6.36153L9.05394 12.783C8.87245 13.1249 8.44869 13.2549 8.10681 13.0738C7.98314 13.008 7.88184 12.9071 7.816 12.783L4.43728 6.38854C4.25621 6.04666 4.38663 5.62247 4.72851 5.4414C4.82897 5.38822 4.94082 5.36036 5.05436 5.35994H11.8637C12.2402 5.35994 12.5454 5.6651 12.5454 6.04159C12.5454 6.15302 12.5179 6.26318 12.4656 6.36153Z" fill="#1D1B1A"/>
<path d="M36.3464 6.90721H34.6197V12.8251C34.6193 12.9374 34.5286 13.0282 34.4163 13.0286H33.0846C32.9724 13.0282 32.8816 12.9374 32.8812 12.8251V6.90721H31.1444C31.0367 6.91186 30.9456 6.82786 30.9409 6.71981C30.9409 6.7177 30.9409 6.71559 30.9409 6.7139V5.66716C30.9422 5.5591 31.0304 5.47258 31.1384 5.47385C31.1406 5.47385 31.1427 5.47385 31.1444 5.47385H36.346C36.4583 5.46878 36.5537 5.55488 36.5596 5.66716V6.71433C36.5537 6.82618 36.4583 6.91228 36.3464 6.90721Z" fill="#1D1B1A"/>
<path d="M41.8897 12.9862C41.5339 13.0369 40.9354 13.1184 39.8375 13.1184C38.5261 13.1184 37.3676 12.7828 37.3676 10.9328V7.55624C37.3676 5.70628 38.5367 5.38086 39.8477 5.38086C40.9451 5.38086 41.5339 5.46232 41.8897 5.51297C42.0319 5.53323 42.0931 5.5843 42.0931 5.71641V6.66313C42.0927 6.7754 42.0019 6.86614 41.8897 6.86657H39.7464C39.2686 6.86657 39.096 7.02906 39.096 7.55793V8.48312H41.8086C41.9209 8.48354 42.0117 8.57428 42.0121 8.68656V9.65227C42.0117 9.76454 41.9209 9.85528 41.8086 9.85571H39.096V10.9333C39.096 11.4617 39.2686 11.6246 39.7464 11.6246H41.8897C42.0019 11.625 42.0927 11.7158 42.0931 11.8281V12.7735C42.0931 12.9048 42.0319 12.966 41.8897 12.9862Z" fill="#1D1B1A"/>
<path d="M49.5591 13.0268H47.943C47.8109 13.0268 47.7497 12.9845 47.6788 12.8744L46.2775 10.6496L45.0079 12.8254C44.9365 12.9474 44.8656 13.0289 44.7546 13.0289H43.2504C43.1486 13.0289 43.098 12.9677 43.098 12.8968C43.1001 12.8718 43.1069 12.8478 43.1182 12.8254L45.3202 9.15336L43.0955 5.6666C43.0841 5.64802 43.0773 5.62692 43.0752 5.6054C43.0828 5.52773 43.1499 5.46991 43.2276 5.47329H44.8639C44.9758 5.47329 45.0573 5.57501 45.1172 5.6666L46.4176 7.71999L47.6762 5.6666C47.7269 5.57501 47.8185 5.47329 47.9295 5.47329H49.4338C49.5114 5.46991 49.5785 5.52773 49.5861 5.6054C49.584 5.62692 49.5773 5.64802 49.5659 5.6666L47.3521 9.17489L49.6608 12.8254C49.679 12.8567 49.6891 12.8913 49.6912 12.9271C49.6917 12.9862 49.6406 13.0268 49.5591 13.0268Z" fill="#1D1B1A"/>
<path d="M28.5047 5.49394C28.43 5.49394 28.3654 5.54712 28.351 5.62056L26.8755 11.0818C26.8552 11.1937 26.8248 11.2342 26.7332 11.2342C26.6416 11.2342 26.6112 11.192 26.591 11.0818L25.1137 5.6193C25.0994 5.54586 25.0348 5.49268 24.9601 5.49268H23.5077C23.4212 5.49268 23.3507 5.56316 23.3507 5.64969C23.3507 5.66151 23.352 5.67332 23.3549 5.68514C23.3549 5.68514 25.1572 11.9483 25.177 12.0099C25.4176 12.7562 26.0013 13.1128 26.7442 13.1128C27.4516 13.1128 28.0691 12.7393 28.3105 12.0121C28.3392 11.9276 30.1014 5.68472 30.1014 5.68472C30.1208 5.60031 30.068 5.51589 29.9832 5.49647C29.9718 5.49394 29.96 5.49268 29.9486 5.49268L28.5047 5.49394Z" fill="#1D1B1A"/>
<path d="M19.5565 0H3.77082C2.5468 0 1.76301 1.30126 2.33577 2.38304L3.91475 5.37302H1.05223C0.471036 5.37302 0 5.84448 0 6.4261C0 6.59704 0.0417855 6.76503 0.121136 6.91613L5.19997 16.5289C5.47221 17.0426 6.10912 17.2384 6.62279 16.9666C6.80935 16.8678 6.96172 16.7155 7.06048 16.5289L8.43983 13.9323L10.1703 17.2084C10.7794 18.3607 12.4293 18.3628 13.0404 17.2118L20.9527 2.32268C21.5119 1.2696 20.7488 0 19.5565 0ZM12.4656 6.36153L9.05394 12.783C8.87245 13.1249 8.44869 13.2549 8.10681 13.0738C7.98314 13.008 7.88184 12.9071 7.816 12.783L4.43728 6.38854C4.25621 6.04666 4.38663 5.62247 4.72851 5.4414C4.82897 5.38822 4.94082 5.36036 5.05436 5.35994H11.8637C12.2402 5.35994 12.5454 5.6651 12.5454 6.04159C12.5454 6.15302 12.5179 6.26318 12.4656 6.36153Z" fill="#1D1B1A"/>
</svg>
