<svg width="20" height="20" viewBox="0 0 20 20" fill="none" xmlns="http://www.w3.org/2000/svg">
<g id="&#195;&#141;cones">
<path id="Vector" d="M1.33331 8.14813H18.6666M5.18516 12.9629H5.19479M9.03702 12.9629H10.9629M1.33331 6.2222C1.33331 5.45602 1.63768 4.72122 2.17945 4.17945C2.72122 3.63768 3.45602 3.33331 4.2222 3.33331H15.7778C16.5439 3.33331 17.2787 3.63768 17.8205 4.17945C18.3623 4.72122 18.6666 5.45602 18.6666 6.2222V13.9259C18.6666 14.6921 18.3623 15.4269 17.8205 15.9687C17.2787 16.5104 16.5439 16.8148 15.7778 16.8148H4.2222C3.45602 16.8148 2.72122 16.5104 2.17945 15.9687C1.63768 15.4269 1.33331 14.6921 1.33331 13.9259V6.2222Z" stroke="white" stroke-linecap="round" stroke-linejoin="round"/>
</g>
</svg>
