<svg xmlns="http://www.w3.org/2000/svg" width="22" height="22" viewBox="0 0 22 22" fill="none"><path d="M1.46667 5.76199C1.46667 5.20629 1.68742 4.67336 2.08036 4.28043C2.47329 3.8875 3.00622 3.66675 3.56191 3.66675H18.2286C18.7843 3.66675 19.3172 3.8875 19.7101 4.28043C20.1031 4.67336 20.3238 5.20629 20.3238 5.76199M1.46667 5.76199V16.2382C1.46667 16.7939 1.68742 17.3268 2.08036 17.7197C2.47329 18.1127 3.00622 18.3334 3.56191 18.3334H18.2286C18.7843 18.3334 19.3172 18.1127 19.7101 17.7197C20.1031 17.3268 20.3238 16.7939 20.3238 16.2382V5.76199M1.46667 5.76199L10.8952 12.0477L20.3238 5.76199" stroke="#3D3D3D" stroke-width="1.3" stroke-linecap="round" stroke-linejoin="round"></path></svg>