<svg xmlns="http://www.w3.org/2000/svg" width="35" height="35" viewBox="0 0 35 35" fill="none"><path d="M2.33333 9.33325H7.39169M2.33333 16.0777H5.70557M13.7986 10.1763L18.8266 15.7068C19.2735 16.1984 19.8127 16.5971 20.4137 16.8803C21.0146 17.1635 21.6654 17.3255 22.329 17.3571C22.9925 17.3887 23.6558 17.2894 24.281 17.0646C24.9061 16.8399 25.4809 16.4942 25.9724 16.0474L31.5029 11.0194M12.4839 12.37L11.4722 22.4867C11.4254 22.9555 11.4772 23.4289 11.6245 23.8764C11.7718 24.3239 12.0112 24.7356 12.3274 25.085C12.6435 25.4343 13.0293 25.7135 13.4599 25.9046C13.8906 26.0957 14.3565 26.1944 14.8276 26.1945H28.2829C29.1191 26.1944 29.9256 25.8837 30.5456 25.3225C31.1656 24.7614 31.555 23.9899 31.6383 23.1578L32.6499 13.041C32.6968 12.5722 32.6449 12.0988 32.4976 11.6513C32.3504 11.2038 32.1109 10.7921 31.7948 10.4427C31.4787 10.0934 31.0929 9.8142 30.6622 9.62311C30.2316 9.43201 29.7657 9.33327 29.2945 9.33325H15.8393C15.003 9.33328 14.1966 9.64403 13.5766 10.2052C12.9565 10.7663 12.5671 11.5378 12.4839 12.37Z" stroke="white" stroke-width="2.33333" stroke-linecap="round" stroke-linejoin="round"></path></svg>