<svg width="20" height="20" viewBox="0 0 20 20" fill="none" xmlns="http://www.w3.org/2000/svg">
<path d="M3.5238 14.7619C3.5238 15.2671 3.72448 15.7515 4.08169 16.1088C4.4389 16.466 4.92339 16.6666 5.42856 16.6666C5.93374 16.6666 6.41822 16.466 6.77543 16.1088C7.13264 15.7515 7.33332 15.2671 7.33332 14.7619M3.5238 14.7619C3.5238 14.2567 3.72448 13.7722 4.08169 13.415C4.4389 13.0578 4.92339 12.8571 5.42856 12.8571C5.93374 12.8571 6.41822 13.0578 6.77543 13.415C7.13264 13.7722 7.33332 14.2567 7.33332 14.7619M3.5238 14.7619H1.61904V10.9524M7.33332 14.7619H13.0476M13.0476 14.7619C13.0476 15.2671 13.2483 15.7515 13.6055 16.1088C13.9627 16.466 14.4472 16.6666 14.9524 16.6666C15.4575 16.6666 15.942 16.466 16.2992 16.1088C16.6565 15.7515 16.8571 15.2671 16.8571 14.7619M13.0476 14.7619C13.0476 14.2567 13.2483 13.7722 13.6055 13.415C13.9627 13.0578 14.4472 12.8571 14.9524 12.8571C15.4575 12.8571 15.942 13.0578 16.2992 13.415C16.6565 13.7722 16.8571 14.2567 16.8571 14.7619M16.8571 14.7619H18.7619V9.0476M0.666656 3.33331H11.1428V14.7619M18.7619 9.0476H11.1428M18.7619 9.0476L15.9048 4.28569H11.1428M1.61904 7.14284H5.42856" stroke="white" stroke-linecap="round" stroke-linejoin="round"/>
</svg>
