<svg xmlns="http://www.w3.org/2000/svg" width="20" height="20" viewBox="0 0 20 20" fill="none">
    <path d="M9.68411 14.7875L6.90049 13.3957M6.90049 13.3957L1.33325 16.1793V4.11693L6.90049 1.33331M6.90049 13.3957V1.33331M6.90049 1.33331L12.4677 4.11693M12.4677 4.11693L18.035 1.33331V8.29237M12.4677 4.11693V9.22024M16.1792 14.3235V14.3328M18.1473 16.2916C18.5366 15.9023 18.8018 15.4063 18.9093 14.8663C19.0168 14.3264 18.9617 13.7666 18.751 13.2579C18.5404 12.7492 18.1836 12.3144 17.7258 12.0085C17.268 11.7026 16.7298 11.5394 16.1792 11.5394C15.6286 11.5394 15.0904 11.7026 14.6326 12.0085C14.1749 12.3144 13.8181 12.7492 13.6074 13.2579C13.3968 13.7666 13.3417 14.3264 13.4492 14.8663C13.5566 15.4063 13.8218 15.9023 14.2112 16.2916C14.5991 16.6804 15.2551 17.2612 16.1792 18.0351C17.1544 17.2093 17.8114 16.6284 18.1473 16.2916Z" stroke="#931D1E" stroke-width="1.3" stroke-linecap="round" stroke-linejoin="round"></path>
</svg>