<svg xmlns="http://www.w3.org/2000/svg" width="20" height="20" viewBox="0 0 20 20" fill="none">
    <g clip-path="url(#clip0_588_1357)">
    <path d="M13.3703 9.99998H9.99992V5.18516M1.33325 9.99998C1.33325 11.1381 1.55742 12.2651 1.99296 13.3166C2.4285 14.3681 3.06689 15.3235 3.87166 16.1282C4.67643 16.933 5.63184 17.5714 6.68333 18.0069C7.73482 18.4425 8.8618 18.6666 9.99992 18.6666C11.138 18.6666 12.265 18.4425 13.3165 18.0069C14.368 17.5714 15.3234 16.933 16.1282 16.1282C16.933 15.3235 17.5713 14.3681 18.0069 13.3166C18.4424 12.2651 18.6666 11.1381 18.6666 9.99998C18.6666 8.86186 18.4424 7.73488 18.0069 6.68339C17.5713 5.6319 16.933 4.6765 16.1282 3.87172C15.3234 3.06695 14.368 2.42856 13.3165 1.99302C12.265 1.55748 11.138 1.33331 9.99992 1.33331C8.8618 1.33331 7.73482 1.55748 6.68333 1.99302C5.63184 2.42856 4.67643 3.06695 3.87166 3.87172C3.06689 4.6765 2.4285 5.6319 1.99296 6.68339C1.55742 7.73488 1.33325 8.86186 1.33325 9.99998Z" stroke="#931D1E" stroke-width="1.3" stroke-linecap="round" stroke-linejoin="round"></path>
    </g>
    <defs>
    <clipPath id="clip0_588_1357">
        <rect width="20" height="20" fill="white"></rect>
    </clipPath>
    </defs>
</svg>