<svg width="20" height="20" viewBox="0 0 20 20" fill="none" xmlns="http://www.w3.org/2000/svg">
<g clip-path="url(#clip0_699_1848)">
<path d="M13.4503 14.5212L10.4395 11.5104C10.3295 11.4004 10.1995 11.3804 10.1295 11.3804C10.0594 11.3804 9.9294 11.4004 9.81938 11.5104L6.79858 14.5312C6.45849 14.8713 5.92835 15.4214 4.15788 15.4214L7.86886 19.1224C8.43151 19.6844 9.19421 20 9.98942 20C10.7846 20 11.5473 19.6844 12.11 19.1224L15.831 15.4114C14.9207 15.4114 14.1605 15.2314 13.4503 14.5212ZM6.79858 5.4688L9.81938 8.4896C9.8994 8.56962 10.0194 8.61963 10.1295 8.61963C10.2395 8.61963 10.3595 8.56962 10.4395 8.4896L13.4303 5.49881C14.1405 4.75862 14.9507 4.58857 15.861 4.58857L12.14 0.877592C11.5773 0.315642 10.8146 0 10.0194 0C9.22422 0 8.46152 0.315642 7.89887 0.877592L4.18789 4.57857C5.94836 4.57857 6.4885 5.15872 6.79858 5.4688Z" fill="white"/>
<path d="M19.1117 7.84945L16.8612 5.58885H15.6008C15.0607 5.58885 14.5205 5.80891 14.1504 6.19901L11.1496 9.1998C10.8696 9.47988 10.4995 9.61992 10.1294 9.61992C9.74827 9.61455 9.38349 9.46435 9.10911 9.1998L6.08831 6.16901C5.70821 5.78891 5.18807 5.56885 4.63793 5.56885H3.16754L0.876936 7.86945C0.314986 8.4321 -0.000656128 9.1948 -0.000656128 9.99001C-0.000656128 10.7852 0.314986 11.5479 0.876936 12.1106L3.16754 14.4112H4.64793C5.18807 14.4112 5.70821 14.1911 6.09831 13.811L9.11911 10.7902C9.39918 10.5102 9.76928 10.3701 10.1394 10.3701C10.5095 10.3701 10.8796 10.5102 11.1596 10.7902L14.1704 13.801C14.5505 14.1811 15.0707 14.4012 15.6208 14.4012H16.8812L19.1317 12.1406C19.6961 11.5678 20.0107 10.7949 20.007 9.99089C20.0032 9.18683 19.6814 8.41694 19.1117 7.84945Z" fill="white"/>
</g>
<defs>
<clipPath id="clip0_699_1848">
<rect width="20" height="20" fill="white"/>
</clipPath>
</defs>
</svg>
