<svg width="19" height="20" viewBox="0 0 19 20" fill="none" xmlns="http://www.w3.org/2000/svg">
<g id="&#195;&#141;cones">
<path id="Vector" d="M9.66669 0C5.79669 0 2.66669 3.13 2.66669 7C2.66669 12.25 9.66669 20 9.66669 20C9.66669 20 16.6667 12.25 16.6667 7C16.6667 3.13 13.5367 0 9.66669 0ZM9.66669 9.5C9.00365 9.5 8.36776 9.23661 7.89892 8.76777C7.43008 8.29893 7.16669 7.66304 7.16669 7C7.16669 6.33696 7.43008 5.70107 7.89892 5.23223C8.36776 4.76339 9.00365 4.5 9.66669 4.5C10.3297 4.5 10.9656 4.76339 11.4345 5.23223C11.9033 5.70107 12.1667 6.33696 12.1667 7C12.1667 7.66304 11.9033 8.29893 11.4345 8.76777C10.9656 9.23661 10.3297 9.5 9.66669 9.5Z" fill="#931D1E"/>
</g>
</svg>
