<svg width="35" height="35" viewBox="0 0 35 35" fill="none" xmlns="http://www.w3.org/2000/svg">
<g id="&#195;&#141;cones">
<path id="Vector" d="M6.85417 25.8125C7.74375 25.8125 8.59689 26.1659 9.22592 26.7949C9.85495 27.4239 10.2083 28.2771 10.2083 29.1666C10.2083 30.0562 9.85495 30.9094 9.22592 31.5384C8.59689 32.1674 7.74375 32.5208 6.85417 32.5208C5.96459 32.5208 5.11144 32.1674 4.48241 31.5384C3.85338 30.9094 3.5 30.0562 3.5 29.1666C3.5 28.2771 3.85338 27.4239 4.48241 26.7949C5.11144 26.1659 5.96459 25.8125 6.85417 25.8125ZM6.85417 25.8125H25.3021M6.85417 25.8125V2.33331H3.5M25.3021 25.8125C26.1917 25.8125 27.0448 26.1659 27.6738 26.7949C28.3029 27.4239 28.6563 28.2771 28.6563 29.1666C28.6563 30.0562 28.3029 30.9094 27.6738 31.5384C27.0448 32.1674 26.1917 32.5208 25.3021 32.5208C24.4125 32.5208 23.5594 32.1674 22.9303 31.5384C22.3013 30.9094 21.9479 30.0562 21.9479 29.1666C21.9479 28.2771 22.3013 27.4239 22.9303 26.7949C23.5594 26.1659 24.4125 25.8125 25.3021 25.8125ZM6.85417 5.68748L30.3333 7.36456L28.6563 19.1041H6.85417" stroke="#3D3D3D" stroke-width="2" stroke-linecap="round" stroke-linejoin="round"/>
</g>
</svg>
